<svg width="450" height="496" viewBox="0 0 450 496" fill="none" xmlns="http://www.w3.org/2000/svg">
<path d="M103 495.5C-26.3262 495.5 3.83637 283.803 3.83638 234C3.83638 215.168 4.84409 185.419 7.89497 155C8.09465 151.983 8.50193 148.235 9.09548 143.934C12.8075 112.212 18.8757 81.11 28.4729 62.2304C31.6206 53.061 34.9952 44.7171 38.4998 38C56.4998 3.49999 74.5 0.499971 86 0.499969C94.2587 0.499968 85.7558 19.4576 80.6771 35.4189C97.5186 35.1476 115.634 38.683 131.205 44.5619C135.853 36.4728 141.543 29.2065 148 24C172.802 3.99999 177 12 183 17C188.761 21.8006 187.147 66.2405 187.894 87.9211C216.608 121.296 224.518 150.875 279.649 191.95C343.711 239.679 437.247 281.82 524.606 283.803L713.851 268.155L705.5 495.5L450 495.5L206.5 495.5L103 495.5Z" fill="#F1592A"/>
<path d="M67 119.5C67.6667 122.833 70.7 129.8 77.5 131C84.3 132.2 90 126.167 92 123" stroke="white" stroke-width="2" stroke-linecap="round" stroke-linejoin="bevel"/>
<ellipse cx="44.5061" cy="95.701" rx="13" ry="24" transform="rotate(8.76689 44.5061 95.701)" fill="white"/>
<ellipse cx="120.506" cy="104.701" rx="13" ry="24" transform="rotate(8.76689 120.506 104.701)" fill="white"/>
<path d="M366 243L338 229L270.5 348C271.333 350.667 303.797 329.375 320.5 310C345.5 281 355 274.5 366 243Z" fill="white"/>
<path d="M444.5 270.5L405.5 258.5L335.298 420.818C336.762 424.136 375.536 391.93 394.256 364.495C422.275 323.433 434.907 312.744 444.5 270.5Z" fill="white"/>
</svg>
