<svg width="492" height="524" viewBox="0 0 492 524" fill="none" xmlns="http://www.w3.org/2000/svg">
<path d="M114.5 246C100.222 295.65 1.21691 480.191 0 524L491.573 503.084C458.31 448.593 396.653 317.789 416.124 230.495C435.595 143.202 365.825 98.3927 328.506 86.8996C280.235 80.8151 251.03 86.8996 208.843 112.86C177.377 132.224 132.348 183.937 114.5 246Z" fill="#F1592A"/>
<path d="M96.4818 158.958C93.1987 225.935 107.299 321.754 120.414 343.928L221.824 232.378C211.277 219.803 199.433 189.137 186.128 154.09C169.496 110.281 165.034 80.264 165.034 66.8779C165.034 64.8497 176.271 0.759069 147.187 0.759033C128.122 0.75901 122.848 21.8521 115.141 37.2664C107.434 52.6806 100.538 76.2076 96.4818 158.958Z" fill="#F1592A"/>
<path d="M214.257 93.5091C190.325 116.63 171.53 143.267 171.26 152.732C202.629 155.842 280.376 138.535 280.376 114.197C280.376 83.7738 299.036 74.4442 301.064 61.0582C303.092 47.6721 244.616 64.18 214.257 93.5091Z" fill="#F1592A"/>
<path d="M391.976 137.163C358.968 130.036 337.037 129.46 328.712 133.972C341.749 162.673 374.986 206.548 396.044 194.345C422.367 179.093 439.795 190.56 452.394 185.604C464.993 180.647 433.237 146.071 391.976 137.163Z" fill="#F1592A"/>
<ellipse cx="254.3" cy="142.072" rx="17.4424" ry="32.8566" transform="rotate(32.852 254.3 142.072)" fill="#D9D9D9"/>
<ellipse cx="330.56" cy="172.089" rx="17.4424" ry="32.8566" transform="rotate(32.852 330.56 172.089)" fill="#D9D9D9"/>
<path d="M267.378 174.778C265.872 179.277 265.402 183.68 272.18 188.275C278.957 192.87 287.147 190.955 289.971 187.701" stroke="white" stroke-width="2" stroke-linecap="round"/>
<circle cx="143.13" cy="34.4269" r="13.7917" fill="#D9D9D9"/>
<path d="M130.149 8.06043C130.289 7.85031 130.381 7.70065 130.439 7.59685C130.393 7.46885 130.659 7.20331 130.439 7.59685C130.451 7.63061 130.485 7.6548 130.555 7.6548C130.961 7.6548 134.611 17.7957 134.611 17.7957C134.611 17.7957 131.907 12.3872 130.149 8.06043Z" fill="white"/>
<path d="M145.159 0.35337C145.642 0.353373 145.873 0.353371 145.971 0.353367C146.2 0.353357 145.685 0.353336 145.97 0.353346C145.97 0.353346 145.971 0.353353 145.971 0.353367C146.374 0.374471 145.313 15.9886 145.158 15.7676C145.158 15.7676 144.758 5.00637 145.159 0.35337Z" fill="white"/>
<path d="M159.761 6.43789C161.384 7.6548 160.585 7.5529 160.978 7.6548C161.348 7.75073 155.479 18.2608 154.931 19.3326C154.909 19.3856 154.897 19.4148 154.894 19.4183C154.884 19.4295 154.897 19.3994 154.931 19.3326C155.304 18.4274 158.291 10.5979 159.761 6.43789Z" fill="white"/>
</svg>
