<svg width="323" height="57" viewBox="0 0 323 57" fill="none" xmlns="http://www.w3.org/2000/svg">
<rect width="16.541" height="4.04879" rx="1.8974" transform="matrix(0.701152 0.713012 -0.701152 0.713012 26.8726 25.5785)" fill="white"/>
<rect width="14.1577" height="4.04879" rx="1.8974" transform="matrix(0.701152 0.713012 -0.701152 0.713012 44.9124 43.7896)" fill="white"/>
<rect width="39.7885" height="4.04879" rx="1.8974" transform="matrix(0.701152 -0.713012 0.701152 0.713012 24.0117 28.48)" fill="white"/>
<rect width="39.7885" height="4.04879" rx="1.8974" transform="matrix(-0.701152 0.713012 0.701152 0.713012 53.6064 25.5884)" fill="#12E3FF"/>
<rect width="16.5842" height="4.04879" rx="1.8974" transform="matrix(-0.701152 -0.713012 -0.701152 0.713012 56.4453 28.4754)" fill="#12E3FF"/>
<rect width="14.2348" height="4.04879" rx="1.8974" transform="matrix(-0.701152 -0.713012 -0.701152 0.713012 38.4744 10.1496)" fill="#12E3FF"/>
<path d="M322.428 27.8879C322.428 29.1158 322.394 30.0538 322.326 30.7019H299.149C299.251 32.8167 299.763 34.6245 300.684 36.1253C301.605 37.6261 302.816 38.7687 304.317 39.5532C305.817 40.3036 307.455 40.6788 309.228 40.6788C311.548 40.6788 313.492 40.116 315.061 38.9904C316.464 38.0049 317.45 36.7187 318.017 35.1318C318.161 34.7274 318.532 34.4369 318.961 34.4369H320.804C321.421 34.4369 321.875 35.0183 321.67 35.6004C320.892 37.8074 319.542 39.6537 317.619 41.1393C315.402 42.8448 312.605 43.6975 309.228 43.6975C306.602 43.6975 304.248 43.1176 302.168 41.9579C300.087 40.7641 298.45 39.0928 297.256 36.9439C296.096 34.7609 295.516 32.2198 295.516 29.3205C295.516 26.4212 296.096 23.8801 297.256 21.6971C298.416 19.5141 300.036 17.8428 302.116 16.6831C304.197 15.5234 306.568 14.9435 309.228 14.9435C311.889 14.9435 314.208 15.5234 316.186 16.6831C318.199 17.8428 319.734 19.4118 320.791 21.3901C321.883 23.3343 322.428 25.5003 322.428 27.8879ZM318.796 27.7856C318.83 25.7049 318.404 23.9313 317.517 22.4646C316.664 20.9979 315.487 19.8893 313.986 19.1389C312.486 18.3885 310.848 18.0133 309.075 18.0133C306.414 18.0133 304.146 18.8661 302.27 20.5715C300.394 22.277 299.354 24.6817 299.149 27.7856H318.796Z" fill="white"/>
<path d="M274.345 14.9435C276.972 14.9435 279.257 15.5575 281.201 16.7854C283.145 18.0133 284.544 19.5653 285.397 21.4413V16.3015C285.397 15.7775 285.821 15.3528 286.345 15.3528H288.029C288.553 15.3528 288.978 15.7775 288.978 16.3015V44.0045C288.978 46.5626 288.415 48.8309 287.29 50.8092C286.198 52.7876 284.663 54.3054 282.685 55.3628C280.707 56.4543 278.455 57 275.931 57C272.35 57 269.365 56.1473 266.978 54.4418C264.932 52.9598 263.557 51.0142 262.851 48.605C262.683 48.0313 263.134 47.4836 263.732 47.4836H265.413C265.826 47.4836 266.188 47.754 266.341 48.1385C266.996 49.7794 268.078 51.1131 269.587 52.1395C271.327 53.2992 273.441 53.879 275.931 53.879C277.739 53.879 279.359 53.4868 280.792 52.7023C282.224 51.9519 283.35 50.8263 284.169 49.3255C284.987 47.8247 285.397 46.051 285.397 44.0045V37.0974C284.51 39.0075 283.094 40.5935 281.15 41.8556C279.24 43.0835 276.972 43.6975 274.345 43.6975C271.787 43.6975 269.485 43.1006 267.438 41.9068C265.426 40.7129 263.84 39.0245 262.68 36.8416C261.554 34.6586 260.991 32.1345 260.991 29.2693C260.991 26.4042 261.554 23.8971 262.68 21.7483C263.84 19.5653 265.426 17.8939 267.438 16.7342C269.485 15.5404 271.787 14.9435 274.345 14.9435ZM285.397 29.3205C285.397 27.0693 284.936 25.091 284.015 23.3855C283.094 21.6801 281.832 20.3669 280.229 19.4459C278.66 18.525 276.92 18.0645 275.01 18.0645C273.032 18.0645 271.258 18.5079 269.689 19.3947C268.12 20.2816 266.875 21.5777 265.954 23.2832C265.067 24.9545 264.624 26.9499 264.624 29.2693C264.624 31.5546 265.067 33.5671 265.954 35.3066C266.875 37.0121 268.12 38.3253 269.689 39.2462C271.258 40.1331 273.032 40.5765 275.01 40.5765C276.92 40.5765 278.66 40.116 280.229 39.1951C281.832 38.2741 283.094 36.9609 284.015 35.2555C284.936 33.55 285.397 31.5717 285.397 29.3205Z" fill="white"/>
<path d="M243.349 14.8412C246.692 14.8412 249.421 15.8815 251.536 17.9622C253.65 20.0087 254.708 22.9933 254.708 26.9158V42.3396C254.708 42.8635 254.283 43.2882 253.759 43.2882H252.126C251.602 43.2882 251.177 42.8635 251.177 42.3396V27.3251C251.177 24.2894 250.41 21.97 248.875 20.3669C247.374 18.7638 245.311 17.9622 242.684 17.9622C239.99 17.9622 237.841 18.8149 236.238 20.5204C234.634 22.2258 233.833 24.7329 233.833 28.0414V42.3396C233.833 42.8635 233.408 43.2882 232.884 43.2882H231.2C230.676 43.2882 230.251 42.8635 230.251 42.3396V16.3015C230.251 15.7776 230.676 15.3529 231.2 15.3529H232.884C233.408 15.3529 233.833 15.7776 233.833 16.3015V20.1111C234.72 18.4056 235.999 17.1095 237.67 16.2226C239.342 15.3017 241.235 14.8412 243.349 14.8412Z" fill="white"/>
<path d="M194.089 29.2693C194.089 26.4042 194.652 23.8971 195.777 21.7483C196.937 19.5653 198.523 17.8939 200.535 16.7342C202.582 15.5404 204.884 14.9435 207.443 14.9435C210.103 14.9435 212.388 15.5575 214.299 16.7854C216.243 18.0133 217.641 19.5823 218.494 21.4925V16.3015C218.494 15.7775 218.919 15.3528 219.443 15.3528H221.127C221.651 15.3528 222.075 15.7775 222.075 16.3015V42.3395C222.075 42.8635 221.651 43.2882 221.127 43.2882H219.443C218.919 43.2882 218.494 42.8635 218.494 42.3395V37.0974C217.607 39.0075 216.192 40.5935 214.247 41.8556C212.337 43.0835 210.052 43.6975 207.391 43.6975C204.867 43.6975 202.582 43.1006 200.535 41.9068C198.523 40.7129 196.937 39.0245 195.777 36.8416C194.652 34.6586 194.089 32.1345 194.089 29.2693ZM218.494 29.3205C218.494 27.0693 218.033 25.091 217.113 23.3855C216.192 21.6801 214.93 20.3669 213.326 19.4459C211.757 18.525 210.018 18.0645 208.108 18.0645C206.129 18.0645 204.356 18.5079 202.787 19.3947C201.218 20.2816 199.973 21.5777 199.052 23.2832C198.165 24.9545 197.721 26.9499 197.721 29.2693C197.721 31.5546 198.165 33.5671 199.052 35.3066C199.973 37.0121 201.218 38.3253 202.787 39.2462C204.356 40.1331 206.129 40.5765 208.108 40.5765C210.018 40.5765 211.757 40.116 213.326 39.1951C214.93 38.2741 216.192 36.9609 217.113 35.2555C218.033 33.55 218.494 31.5717 218.494 29.3205Z" fill="white"/>
<path d="M180.771 20.3157C181.555 18.5762 182.749 17.2289 184.352 16.2738C185.765 15.4498 187.444 14.9812 189.39 14.8682C189.913 14.8378 190.338 15.2659 190.338 15.7899V17.6275C190.338 18.1514 189.914 18.5762 189.39 18.5762H189.366C186.774 18.5762 184.693 19.2754 183.124 20.6739C181.555 22.0723 180.771 24.4088 180.771 27.6833V42.3396C180.771 42.8635 180.346 43.2882 179.822 43.2882H178.138C177.614 43.2882 177.189 42.8635 177.189 42.3396V16.3015C177.189 15.7776 177.614 15.3529 178.138 15.3529H179.822C180.346 15.3529 180.771 15.7776 180.771 16.3015V20.3157Z" fill="white"/>
<path d="M154.38 14.9435C157.007 14.9435 159.292 15.5575 161.236 16.7854C163.18 18.0133 164.579 19.5653 165.432 21.4413V16.3015C165.432 15.7775 165.856 15.3528 166.38 15.3528H168.064C168.588 15.3528 169.013 15.7775 169.013 16.3015V44.0045C169.013 46.5626 168.45 48.8309 167.325 50.8092C166.233 52.7876 164.698 54.3054 162.72 55.3628C160.742 56.4543 158.49 57 155.966 57C152.385 57 149.4 56.1473 147.013 54.4418C144.968 52.9598 143.592 51.0142 142.886 48.605C142.718 48.0313 143.169 47.4836 143.767 47.4836H145.448C145.862 47.4836 146.223 47.754 146.376 48.1385C147.031 49.7794 148.113 51.1131 149.622 52.1395C151.362 53.2992 153.476 53.879 155.966 53.879C157.774 53.879 159.394 53.4868 160.827 52.7023C162.26 51.9519 163.385 50.8263 164.204 49.3255C165.022 47.8247 165.432 46.051 165.432 44.0045V37.0974C164.545 39.0075 163.129 40.5935 161.185 41.8556C159.275 43.0835 157.007 43.6975 154.38 43.6975C151.822 43.6975 149.52 43.1006 147.473 41.9068C145.461 40.7129 143.875 39.0245 142.715 36.8416C141.589 34.6586 141.027 32.1345 141.027 29.2693C141.027 26.4042 141.589 23.8971 142.715 21.7483C143.875 19.5653 145.461 17.8939 147.473 16.7342C149.52 15.5404 151.822 14.9435 154.38 14.9435ZM165.432 29.3205C165.432 27.0693 164.971 25.091 164.05 23.3855C163.129 21.6801 161.867 20.3669 160.264 19.4459C158.695 18.525 156.956 18.0645 155.045 18.0645C153.067 18.0645 151.293 18.5079 149.724 19.3947C148.155 20.2816 146.91 21.5777 145.989 23.2832C145.103 24.9545 144.659 26.9499 144.659 29.2693C144.659 31.5546 145.103 33.5671 145.989 35.3066C146.91 37.0121 148.155 38.3253 149.724 39.2462C151.293 40.1331 153.067 40.5765 155.045 40.5765C156.956 40.5765 158.695 40.116 160.264 39.1951C161.867 38.2741 163.129 36.9609 164.05 35.2555C164.971 33.55 165.432 31.5717 165.432 29.3205Z" fill="white"/>
<path d="M106.501 29.2693C106.501 26.4042 107.064 23.8971 108.189 21.7483C109.349 19.5653 110.935 17.8939 112.948 16.7342C114.994 15.5404 117.297 14.9435 119.855 14.9435C122.515 14.9435 124.801 15.5575 126.711 16.7854C128.655 18.0133 130.053 19.5823 130.906 21.4925V16.3015C130.906 15.7775 131.331 15.3528 131.855 15.3528H133.539C134.063 15.3528 134.487 15.7775 134.487 16.3015V42.3395C134.487 42.8635 134.063 43.2882 133.539 43.2882H131.855C131.331 43.2882 130.906 42.8635 130.906 42.3395V37.0974C130.019 39.0075 128.604 40.5935 126.659 41.8556C124.749 43.0835 122.464 43.6975 119.804 43.6975C117.279 43.6975 114.994 43.1006 112.948 41.9068C110.935 40.7129 109.349 39.0245 108.189 36.8416C107.064 34.6586 106.501 32.1345 106.501 29.2693ZM130.906 29.3205C130.906 27.0693 130.446 25.091 129.525 23.3855C128.604 21.6801 127.342 20.3669 125.739 19.4459C124.169 18.525 122.43 18.0645 120.52 18.0645C118.541 18.0645 116.768 18.5079 115.199 19.3947C113.63 20.2816 112.385 21.5777 111.464 23.2832C110.577 24.9545 110.134 26.9499 110.134 29.2693C110.134 31.5546 110.577 33.5671 111.464 35.3066C112.385 37.0121 113.63 38.3253 115.199 39.2462C116.768 40.1331 118.541 40.5765 120.52 40.5765C122.43 40.5765 124.169 40.116 125.739 39.1951C127.342 38.2741 128.604 36.9609 129.525 35.2555C130.446 33.55 130.906 31.5717 130.906 29.3205Z" fill="white"/>
<path d="M90.185 39.3552H102.078C102.602 39.3552 103.027 39.7799 103.027 40.3038V42.3396C103.027 42.8635 102.602 43.2882 102.078 43.2882H87.5522C87.0282 43.2882 86.6035 42.8635 86.6035 42.3396V8.47344C86.6035 7.94953 87.0282 7.52481 87.5521 7.52481H89.2363C89.7603 7.52481 90.185 7.94953 90.185 8.47344V39.3552Z" fill="white"/>
</svg>
